<?xml version="1.0" encoding="UTF-8" standalone="no"?>
<svg
   width="19.505459"
   height="34.004799"
   viewBox="0 0 19.505459 34.004799"
   fill="none"
   version="1.1"
   id="svg8"
   sodipodi:docname="logo.svg"
   inkscape:version="1.4-beta3 (01c8a1ca, 2024-08-28)"
   xmlns:inkscape="http://www.inkscape.org/namespaces/inkscape"
   xmlns:sodipodi="http://sodipodi.sourceforge.net/DTD/sodipodi-0.dtd"
   xmlns="http://www.w3.org/2000/svg"
   xmlns:svg="http://www.w3.org/2000/svg">
  <sodipodi:namedview
     id="namedview8"
     pagecolor="#ffffff"
     bordercolor="#000000"
     borderopacity="0.25"
     inkscape:showpageshadow="2"
     inkscape:pageopacity="0.0"
     inkscape:pagecheckerboard="0"
     inkscape:deskcolor="#d1d1d1"
     inkscape:zoom="2.6"
     inkscape:cx="47.5"
     inkscape:cy="19.807692"
     inkscape:window-width="1472"
     inkscape:window-height="774"
     inkscape:window-x="0"
     inkscape:window-y="33"
     inkscape:window-maximized="0"
     inkscape:current-layer="g8" />
  <g
     clip-path="url(#clip0_5060_35923)"
     id="g8"
     transform="translate(5.91278e-5)">
    <g
       id="g9">
      <path
         d="m 15.5638,34.0048 -4.0426,-5.8525 -1.2127,1.4127 v 4.4398 H 6.67019 V 13.5215 h 3.63831 v 11.5028 h 0.2022 l 4.4468,-5.2468 h 4.2447 l -5.2554,6.0542 5.5586,8.1731 z"
         fill="#ffffff"
         id="path7" />
      <path
         d="M 8.38826,16.8507 C 3.73931,16.8507 -5.91278e-5,13.0165 -5.91278e-5,8.37491 -5.91278e-5,3.73341 3.73931,0 8.38826,0 13.0371,0 16.7766,3.73341 16.7766,8.37491 16.8777,13.0165 13.0371,16.8507 8.38826,16.8507 Z m 0,-13.52091 c -2.8298,0 -5.05321,2.32077 -5.05321,5.04512 0,2.82529 2.32448,5.04519 5.05321,5.04519 2.82974,0 5.05314,-2.3208 5.05314,-5.04519 C 13.5425,5.65056 11.218,3.32979 8.38826,3.32979 Z"
         fill="#ffffff"
         id="path8" />
    </g>
  </g>
  <defs
     id="defs8">
    <clipPath
       id="clip0_5060_35923">
      <rect
         width="95"
         height="40"
         fill="#ffffff"
         id="rect8"
         x="0"
         y="0" />
    </clipPath>
  </defs>
</svg>
