<?xml version="1.0" encoding="UTF-8" standalone="no"?>
<!-- Uploaded to: SVG Repo, www.svgrepo.com, Generator: SVG Repo Mixer Tools -->

<svg
   width="666.66669"
   height="500"
   viewBox="0 0 40.000001 30"
   version="1.1"
   id="svg4"
   sodipodi:docname="smartcard_verify.svg"
   inkscape:version="1.4-beta3 (01c8a1ca, 2024-08-28)"
   xml:space="preserve"
   xmlns:inkscape="http://www.inkscape.org/namespaces/inkscape"
   xmlns:sodipodi="http://sodipodi.sourceforge.net/DTD/sodipodi-0.dtd"
   xmlns="http://www.w3.org/2000/svg"
   xmlns:svg="http://www.w3.org/2000/svg"><sodipodi:namedview
     id="namedview4"
     pagecolor="#ffffff"
     bordercolor="#000000"
     borderopacity="0.25"
     inkscape:showpageshadow="2"
     inkscape:pageopacity="0.0"
     inkscape:pagecheckerboard="0"
     inkscape:deskcolor="#d1d1d1"
     inkscape:zoom="0.36583251"
     inkscape:cx="558.99898"
     inkscape:cy="158.5425"
     inkscape:window-width="1440"
     inkscape:window-height="837"
     inkscape:window-x="0"
     inkscape:window-y="33"
     inkscape:window-maximized="0"
     inkscape:current-layer="g8" /><defs
     id="defs1"><style
       id="style1">.a{fill:none;stroke:#000000;stroke-linecap:round;stroke-linejoin:round;}</style></defs><g
     id="g8"><rect
       class="a"
       x="0.5"
       y="0.5"
       width="39"
       height="29"
       rx="3"
       id="rect1"
       style="fill:#000000;fill-opacity:1" /><path
       id="chip--debit_1_"
       d="M 9.113751,11.869447 H 3.53363 c -0.310859,0 -0.563825,-0.253197 -0.563825,-0.564057 V 5.725268 c 0,-0.310859 0.252966,-0.563825 0.563825,-0.563825 h 5.580121 c 0.310859,0 0.564058,0.252966 0.564058,0.563825 v 5.580122 c 0,0.31086 -0.253199,0.564057 -0.564058,0.564057 z M 6.422505,11.671353 h 2.691246 c 0.201815,0 0.365964,-0.164149 0.365964,-0.365963 V 10.706921 H 8.416237 c -0.02635,0 -0.05139,-0.01046 -0.06998,-0.02906 L 7.445298,9.776901 h -1.02279 z m -3.25507,-0.964432 v 0.598469 c 0,0.201814 0.16438,0.365963 0.366195,0.365963 H 6.224876 V 9.776902 H 5.2023191 L 4.301361,10.677859 c -0.0186,0.0186 -0.04371,0.02906 -0.06998,0.02906 0,0 -1.063942,0 -1.063942,0 z M 8.457157,10.508827 H 9.479715 V 8.614144 H 7.585263 v 1.022789 z m -5.289722,0 H 4.189992 L 5.0621171,9.636933 V 8.614144 H 3.167435 Z M 5.2599801,9.578807 H 7.387169 V 7.451618 H 5.2599801 Z M 7.585263,8.416514 H 9.479715 V 6.521599 H 8.457157 L 7.585263,7.393724 Z m -4.417828,0 H 5.0621171 V 7.393957 L 4.190224,6.521599 H 3.167435 Z m 3.25507,-1.162525 h 1.02279 L 8.346252,6.353032 c 0.0186,-0.01861 0.04371,-0.02906 0.06998,-0.02906 H 9.479711 V 5.725271 c 0,-0.201814 -0.164149,-0.366195 -0.365964,-0.366195 H 6.422501 Z m -1.2204189,0 H 6.224643 V 5.359073 H 3.53363 c -0.201815,0 -0.366195,0.164381 -0.366195,0.366195 v 0.598701 h 1.063709 c 0.02635,0 0.05138,0.01012 0.06998,0.02906 z"
       style="fill:#ffffff;stroke-width:0.232505" /><g
       id="g9"
       transform="matrix(0.199162,0,0,0.199162,32.646175,20.49868)"><path
         d="m 15.5638,34.0048 -4.0426,-5.8525 -1.2127,1.4127 v 4.4398 H 6.67019 V 13.5215 h 3.63831 v 11.5028 h 0.2022 l 4.4468,-5.2468 h 4.2447 l -5.2554,6.0542 5.5586,8.1731 z"
         fill="#ffffff"
         id="path7" /><path
         d="M 8.38826,16.8507 C 3.73931,16.8507 -5.91278e-5,13.0165 -5.91278e-5,8.37491 -5.91278e-5,3.73341 3.73931,0 8.38826,0 13.0371,0 16.7766,3.73341 16.7766,8.37491 16.8777,13.0165 13.0371,16.8507 8.38826,16.8507 Z m 0,-13.52091 c -2.8298,0 -5.05321,2.32077 -5.05321,5.04512 0,2.82529 2.32448,5.04519 5.05321,5.04519 2.82974,0 5.05314,-2.3208 5.05314,-5.04519 C 13.5425,5.65056 11.218,3.32979 8.38826,3.32979 Z"
         fill="#ffffff"
         id="path8" /></g><g
       style="fill:none"
       id="g1"
       transform="matrix(2,0,0,2,25.68,2.0999999)"><g
         id="g2"
         transform="matrix(0.11162791,0,0,0.11162791,3.1147348,-0.07684218)"><path
           d="m 7.37756,11.6296 h -0.75 z m 0,0.926 -0.56147,0.4972 c 0.13528,0.1528 0.32697,0.2438 0.53086,0.2521 0.20389,0.0084 0.40237,-0.0667 0.54967,-0.208 z M 9.51905,11.5414 C 9.81805,11.2547 9.82804,10.7799 9.54137,10.4809 9.2547,10.182 8.77994,10.172 8.48095,10.4586 Z M 6.56148,10.5028 C 6.28686,10.1927 5.81286,10.1639 5.50277,10.4385 5.19267,10.7131 5.16391,11.1871 5.43852,11.4972 Z M 14.9317,9.0093 c 0.2813,0.30407 0.7558,0.32254 1.0598,0.04125 0.3041,-0.28128 0.3226,-0.75579 0.0413,-1.05985 z M 12.0437,6.25 c -2.98568,0 -5.41614,2.403 -5.41614,5.3796 h 1.5 C 8.12756,9.49251 9.87531,7.75 12.0437,7.75 Z m -5.41614,5.3796 v 0.926 h 1.5 v -0.926 z m 1.26906,1.4673 1.62243,-1.5555 -1.0381,-1.0828 -1.62244,1.5556 z M 7.93904,12.0583 6.56148,10.5028 5.43852,11.4972 6.81609,13.0528 Z M 16.0328,7.9907 C 15.0431,6.9209 13.6212,6.25 12.0437,6.25 v 1.5 c 1.1442,0 2.1717,0.48504 2.888,1.2593 z"
           fill="#1c274c"
           id="path1-7"
           style="fill:#ff7d46;fill-opacity:1" /><path
           d="m 16.6188,11.4443 0.5607,-0.4981 c -0.1355,-0.1525 -0.3272,-0.2432 -0.531,-0.2513 -0.2038,-0.0081 -0.4021,0.0672 -0.5492,0.2085 z m -2.1383,1.0138 c -0.2988,0.2869 -0.3083,0.7617 -0.0214,1.0604 0.2869,0.2988 0.7617,0.3084 1.0604,0.0215 z m 2.9588,1.0391 c 0.2751,0.3096 0.7492,0.3376 1.0588,0.0625 0.3097,-0.2751 0.3377,-0.7491 0.0626,-1.0588 z M 9.04688,15.0047 C 8.76342,14.7027 8.28879,14.6876 7.98675,14.9711 7.68472,15.2545 7.66966,15.7292 7.95312,16.0312 Z m 2.88792,2.7452 c 2.9928,0 5.434,-2.4003 5.434,-5.3796 h -1.5 c 0,2.1344 -1.753,3.8796 -3.934,3.8796 z m 5.434,-5.3796 v -0.926 h -1.5 v 0.926 z m -1.2695,-1.4669 -1.6188,1.5547 1.039,1.0819 1.6188,-1.5547 z m -0.0412,1.0391 1.3812,1.5547 1.1214,-0.9963 -1.3812,-1.5547 z m -8.10498,4.0887 c 0.99231,1.0573 2.41038,1.7187 3.98168,1.7187 v -1.5 c -1.1428,0 -2.16934,-0.4795 -2.88792,-1.2452 z"
           fill="#1c274c"
           id="path2-9"
           style="fill:#ff7d46;fill-opacity:1" /><path
           d="M 7,3.33782 C 8.47087,2.48697 10.1786,2 12,2 17.5228,2 22,6.47715 22,12 22,17.5228 17.5228,22 12,22 6.47715,22 2,17.5228 2,12 2,10.1786 2.48697,8.47087 3.33782,7"
           stroke="#1c274c"
           stroke-width="1.5"
           stroke-linecap="round"
           id="path3-3"
           style="stroke:#ff7d46;stroke-opacity:1" /></g></g></g></svg>
