<?xml version="1.0" encoding="UTF-8" standalone="no"?>
<!-- Uploaded to: SVG Repo, www.svgrepo.com, Generator: SVG Repo Mixer Tools -->

<svg
   width="666.66669"
   height="500"
   viewBox="0 0 40.000001 30"
   version="1.1"
   id="svg4"
   sodipodi:docname="smartcard_install.svg"
   inkscape:version="1.4-beta3 (01c8a1ca, 2024-08-28)"
   xml:space="preserve"
   xmlns:inkscape="http://www.inkscape.org/namespaces/inkscape"
   xmlns:sodipodi="http://sodipodi.sourceforge.net/DTD/sodipodi-0.dtd"
   xmlns="http://www.w3.org/2000/svg"
   xmlns:svg="http://www.w3.org/2000/svg"><sodipodi:namedview
     id="namedview4"
     pagecolor="#ffffff"
     bordercolor="#000000"
     borderopacity="0.25"
     inkscape:showpageshadow="2"
     inkscape:pageopacity="0.0"
     inkscape:pagecheckerboard="0"
     inkscape:deskcolor="#d1d1d1"
     inkscape:zoom="0.5173653"
     inkscape:cx="544.10298"
     inkscape:cy="36.724535"
     inkscape:window-width="1440"
     inkscape:window-height="837"
     inkscape:window-x="0"
     inkscape:window-y="33"
     inkscape:window-maximized="0"
     inkscape:current-layer="g8" /><defs
     id="defs1"><style
       id="style1">.a{fill:none;stroke:#000000;stroke-linecap:round;stroke-linejoin:round;}</style></defs><g
     id="g8"><rect
       class="a"
       x="0.5"
       y="0.5"
       width="39"
       height="29"
       rx="3"
       id="rect1"
       style="fill:#000000;fill-opacity:1" /><path
       id="chip--debit_1_"
       d="M 9.113751,11.869447 H 3.53363 c -0.310859,0 -0.563825,-0.253197 -0.563825,-0.564057 V 5.725268 c 0,-0.310859 0.252966,-0.563825 0.563825,-0.563825 h 5.580121 c 0.310859,0 0.564058,0.252966 0.564058,0.563825 v 5.580122 c 0,0.31086 -0.253199,0.564057 -0.564058,0.564057 z M 6.422505,11.671353 h 2.691246 c 0.201815,0 0.365964,-0.164149 0.365964,-0.365963 V 10.706921 H 8.416237 c -0.02635,0 -0.05139,-0.01046 -0.06998,-0.02906 L 7.445298,9.776901 h -1.02279 z m -3.25507,-0.964432 v 0.598469 c 0,0.201814 0.16438,0.365963 0.366195,0.365963 H 6.224876 V 9.776902 H 5.2023191 L 4.301361,10.677859 c -0.0186,0.0186 -0.04371,0.02906 -0.06998,0.02906 0,0 -1.063942,0 -1.063942,0 z M 8.457157,10.508827 H 9.479715 V 8.614144 H 7.585263 v 1.022789 z m -5.289722,0 H 4.189992 L 5.0621171,9.636933 V 8.614144 H 3.167435 Z M 5.2599801,9.578807 H 7.387169 V 7.451618 H 5.2599801 Z M 7.585263,8.416514 H 9.479715 V 6.521599 H 8.457157 L 7.585263,7.393724 Z m -4.417828,0 H 5.0621171 V 7.393957 L 4.190224,6.521599 H 3.167435 Z m 3.25507,-1.162525 h 1.02279 L 8.346252,6.353032 c 0.0186,-0.01861 0.04371,-0.02906 0.06998,-0.02906 H 9.479711 V 5.725271 c 0,-0.201814 -0.164149,-0.366195 -0.365964,-0.366195 H 6.422501 Z m -1.2204189,0 H 6.224643 V 5.359073 H 3.53363 c -0.201815,0 -0.366195,0.164381 -0.366195,0.366195 v 0.598701 h 1.063709 c 0.02635,0 0.05138,0.01012 0.06998,0.02906 z"
       style="fill:#ffffff;stroke-width:0.232505" /><g
       id="g9"
       transform="matrix(0.199162,0,0,0.199162,32.646175,20.49868)"><path
         d="m 15.5638,34.0048 -4.0426,-5.8525 -1.2127,1.4127 v 4.4398 H 6.67019 V 13.5215 h 3.63831 v 11.5028 h 0.2022 l 4.4468,-5.2468 h 4.2447 l -5.2554,6.0542 5.5586,8.1731 z"
         fill="#ffffff"
         id="path7" /><path
         d="M 8.38826,16.8507 C 3.73931,16.8507 -5.91278e-5,13.0165 -5.91278e-5,8.37491 -5.91278e-5,3.73341 3.73931,0 8.38826,0 13.0371,0 16.7766,3.73341 16.7766,8.37491 16.8777,13.0165 13.0371,16.8507 8.38826,16.8507 Z m 0,-13.52091 c -2.8298,0 -5.05321,2.32077 -5.05321,5.04512 0,2.82529 2.32448,5.04519 5.05321,5.04519 2.82974,0 5.05314,-2.3208 5.05314,-5.04519 C 13.5425,5.65056 11.218,3.32979 8.38826,3.32979 Z"
         fill="#ffffff"
         id="path8" /></g><g
       style="fill:none"
       id="g18"
       transform="matrix(2,0,0,2,-2.7600001,-14.940025)"><g
         id="g19"
         transform="matrix(0.12307661,0,0,0.12307661,17.19735,8.3057846)"><path
           d="m 12,3 v 13 m 0,0 4,-4.375 M 12,16 8,11.625"
           stroke="#1c274c"
           stroke-width="1.5"
           stroke-linecap="round"
           stroke-linejoin="round"
           id="path1-3"
           style="stroke:#ff7d46;stroke-opacity:1" /><path
           d="M 15,21 H 9 C 6.17157,21 4.75736,21 3.87868,20.1213 3,19.2426 3,17.8284 3,15 m 18,0 c 0,2.8284 0,4.2426 -0.8787,5.1213 -0.2998,0.2998 -0.6619,0.4973 -1.1213,0.6274"
           stroke="#1c274c"
           stroke-width="1.5"
           stroke-linecap="round"
           stroke-linejoin="round"
           id="path2-7"
           style="stroke:#ff7d46;stroke-opacity:1" /></g></g></g></svg>
